<svg xmlns="http://www.w3.org/2000/svg" xmlns:xlink="http://www.w3.org/1999/xlink" version="1.1" x="0px" y="0px" viewBox="0 0 80 100" enable-background="new 0 0 80 80" xml:space="preserve">
<g><path fill="none" stroke="#0492c2" stroke-width="2" stroke-linecap="round" stroke-linejoin="round" stroke-miterlimit="10" d="   M36,53.5c0-5.25-4.25-9.5-9.5-9.5c-1.2300415,0-2.4100342,0.2299805-3.4900513,0.6599731   C19.4899902,46.0499878,17,49.4799805,17,53.5c0,5.2399902,4.25,9.5,9.5,9.5c4.0199585,0,7.4499512-2.4900513,8.8399658-6.0100098   C35.7699585,55.9099731,36,54.7299805,36,53.5z"/><path fill="none" stroke="#0492c2" stroke-width="2" stroke-linecap="round" stroke-linejoin="round" stroke-miterlimit="10" d="   M63,53.5c0-4.0200195-2.4900513-7.4500122-6.0100098-8.8400269C55.9099731,44.2299805,54.7299805,44,53.5,44   c-5.25,0-9.5,4.25-9.5,9.5c0,1.2299805,0.2299805,2.4099731,0.6599731,3.4899902C46.0499878,60.5099487,49.4799805,63,53.5,63   C58.75,63,63,58.7399902,63,53.5z"/><path fill="none" stroke="#0492c2" stroke-width="2" stroke-linecap="round" stroke-linejoin="round" stroke-miterlimit="10" d="   M49.5,26.5c0-0.4800415-0.0400391-0.9500122-0.1100464-1.4200439C48.7099609,20.5099487,44.7699585,17,40,17   c-4.7700195,0-8.710022,3.5099487-9.3900146,8.0799561C30.539978,25.5499878,30.5,26.0199585,30.5,26.5   c0,5.2399902,4.25,9.5,9.5,9.5S49.5,31.7399902,49.5,26.5z"/><path fill="none" stroke="#0492c2" stroke-width="2" stroke-linecap="round" stroke-linejoin="round" stroke-miterlimit="10" d="   M56.9899902,44.6599731C57.3999634,43.1799927,57.6199951,41.6099854,57.6199951,40   c0-6.2800293-3.2800293-11.8000488-8.2300415-14.9200439"/><path fill="none" stroke="#0492c2" stroke-width="2" stroke-linecap="round" stroke-linejoin="round" stroke-miterlimit="10" d="   M35.3399658,56.9899902C36.8200073,57.3999634,38.3899536,57.6199951,40,57.6199951   c1.6099854,0,3.1799927-0.2200317,4.6599731-0.6300049"/><path fill="none" stroke="#0492c2" stroke-width="2" stroke-linecap="round" stroke-linejoin="round" stroke-miterlimit="10" d="   M30.6099854,25.0799561C25.6599731,28.1999512,22.3800049,33.7199707,22.3800049,40   c0,1.6099854,0.2199707,3.1799927,0.6299438,4.6599731"/><path fill="none" stroke="#0492c2" stroke-width="2" stroke-linecap="round" stroke-linejoin="round" stroke-miterlimit="10" d="   M23.9994373,56.0023193c0,1.3782616,1.1173,2.4955597,2.4955578,2.4955597s2.4955578-1.1172981,2.4955578-2.4955597   c0-1.3782578-1.1173-2.4955559-2.4955578-2.4955559s-2.4955578-1.1172981-2.4955578-2.4955597   c0-1.3782578,1.1173-2.4955559,2.4955578-2.4955559s2.4955578,1.1172981,2.4955578,2.4955559"/><line fill="none" stroke="#0492c2" stroke-width="2" stroke-linecap="round" stroke-linejoin="round" stroke-miterlimit="10" x1="26.4949951" y1="48.5156479" x2="26.4949951" y2="47.5275269"/><line fill="none" stroke="#0492c2" stroke-width="2" stroke-linecap="round" stroke-linejoin="round" stroke-miterlimit="10" x1="26.4949951" y1="58.497879" x2="26.4949951" y2="59.4806519"/><polyline fill="none" stroke="#0492c2" stroke-width="2" stroke-linecap="round" stroke-linejoin="round" stroke-miterlimit="10" points="   43.9994392,30.0023212 39.9993896,27.0023212 40,21.0023212  "/><line fill="none" stroke="#0492c2" stroke-width="2" stroke-linejoin="round" stroke-miterlimit="10" x1="48.9994392" y1="56.9899902" x2="48.9994392" y2="54.0023193"/><line fill="none" stroke="#0492c2" stroke-width="2" stroke-linejoin="round" stroke-miterlimit="10" x1="52.9994392" y1="56.9899902" x2="52.9994392" y2="51.0023193"/><line fill="none" stroke="#0492c2" stroke-width="2" stroke-linejoin="round" stroke-miterlimit="10" x1="56.9994392" y1="57.0023193" x2="56.9994392" y2="49.0023193"/></g>
</svg>